HIERARCHY
ROOT Hips
{
  OFFSET 355.919 86.4747 225.794
  CHANNELS 6 Xposition Yposition Zposition Zrotation Xrotation Yrotation
  JOINT RightUpLeg
  {
    OFFSET -9.27002 -1.5459 0.01036
    CHANNELS 6 Xposition Yposition Zposition Zrotation Xrotation Yrotation
    JOINT RightLeg
    {
      OFFSET 0.0140593 -41.8711 0.0133698
      CHANNELS 6 Xposition Yposition Zposition Zrotation Xrotation Yrotation
      JOINT RightFoot
      {
        OFFSET -0.635566 -43.1404 -0.638083
        CHANNELS 6 Xposition Yposition Zposition Zrotation Xrotation Yrotation
        End Site
        {
          OFFSET 0 -7.69 17.5
        }
      }
    }
  }
  JOINT LeftUpLeg
  {
    OFFSET 9.32012 -1.63326 -0.0611393
    CHANNELS 6 Xposition Yposition Zposition Zrotation Xrotation Yrotation
    JOINT LeftLeg
    {
      OFFSET 0.136006 -41.8606 -0.0682192
      CHANNELS 6 Xposition Yposition Zposition Zrotation Xrotation Yrotation
      JOINT LeftFoot
      {
        OFFSET 0.555276 -40.3269 1.11688
        CHANNELS 6 Xposition Yposition Zposition Zrotation Xrotation Yrotation
        End Site
        {
          OFFSET 0 -7.69 17.5
        }
      }
    }
  }
  JOINT Spine
  {
    OFFSET 0.0429494 14.3014 0.0623428
    CHANNELS 6 Xposition Yposition Zposition Zrotation Xrotation Yrotation
    JOINT Spine1
    {
      OFFSET 0.0339905 9.7145 0.0185974
      CHANNELS 6 Xposition Yposition Zposition Zrotation Xrotation Yrotation
      JOINT Spine2
      {
        OFFSET 0.0702987 10.1151 0.00119849
        CHANNELS 6 Xposition Yposition Zposition Zrotation Xrotation Yrotation
        JOINT Spine3
        {
          OFFSET 0.0549776 9.72171 0.0130783
          CHANNELS 6 Xposition Yposition Zposition Zrotation Xrotation Yrotation
          JOINT Neck
          {
            OFFSET 0.180558 10.3826 0.0585802
            CHANNELS 6 Xposition Yposition Zposition Zrotation Xrotation Yrotation
            JOINT Head
            {
              OFFSET 0.132064 9.47087 0.0302784
              CHANNELS 6 Xposition Yposition Zposition Zrotation Xrotation Yrotation
              End Site
              {
                OFFSET 0 15.95 0
              }
            }
          }
          JOINT RightShoulder
          {
            OFFSET -3.15694 6.89408 0.00348883
            CHANNELS 6 Xposition Yposition Zposition Zrotation Xrotation Yrotation
            JOINT RightArm
            {
              OFFSET -12.7416 -0.0031918 0.045926
              CHANNELS 6 Xposition Yposition Zposition Zrotation Xrotation Yrotation
              JOINT RightForeArm
              {
                OFFSET -26.5078 -0.077338 0.00400063
                CHANNELS 6 Xposition Yposition Zposition Zrotation Xrotation Yrotation
                JOINT RightHand
                {
                  OFFSET -26.0338 -0.025514 0.155859
                  CHANNELS 6 Xposition Yposition Zposition Zrotation Xrotation Yrotation
                  JOINT RightHandThumb1
                  {
                    OFFSET -2.48905 0.190105 3.12053
                    CHANNELS 6 Xposition Yposition Zposition Zrotation Xrotation Yrotation
                    JOINT RightHandThumb2
                    {
                      OFFSET -3.68274 0 0
                      CHANNELS 6 Xposition Yposition Zposition Zrotation Xrotation Yrotation
                      JOINT RightHandThumb3
                      {
                        OFFSET -2.55832 0 0
                        CHANNELS 6 Xposition Yposition Zposition Zrotation Xrotation Yrotation
                        End Site
                        {
                          OFFSET -2.194 0 0
                        }
                      }
                    }
                  }
                  JOINT RightInHandIndex
                  {
                    OFFSET -3.22368 0.508421 1.97842
                    CHANNELS 6 Xposition Yposition Zposition Zrotation Xrotation Yrotation
                    JOINT RightHandIndex1
                    {
                      OFFSET -5.21684 -0.091368 0.999158
                      CHANNELS 6 Xposition Yposition Zposition Zrotation Xrotation Yrotation
                      JOINT RightHandIndex2
                      {
                        OFFSET -3.61937 0 0
                        CHANNELS 6 Xposition Yposition Zposition Zrotation Xrotation Yrotation
                        JOINT RightHandIndex3
                        {
                          OFFSET -2.0521 0 0
                          CHANNELS 6 Xposition Yposition Zposition Zrotation Xrotation Yrotation
                          End Site
                          {
                            OFFSET -1.805 0 0
                          }
                        }
                      }
                    }
                  }
                  JOINT RightInHandMiddle
                  {
                    OFFSET -3.38211 0.517263 0.756737
                    CHANNELS 6 Xposition Yposition Zposition Zrotation Xrotation Yrotation
                    JOINT RightHandMiddle1
                    {
                      OFFSET -5.17411 -0.084 0.313895
                      CHANNELS 6 Xposition Yposition Zposition Zrotation Xrotation Yrotation
                      JOINT RightHandMiddle2
                      {
                        OFFSET -3.94947 0 0
                        CHANNELS 6 Xposition Yposition Zposition Zrotation Xrotation Yrotation
                        JOINT RightHandMiddle3
                        {
                          OFFSET -2.47579 0 0
                          CHANNELS 6 Xposition Yposition Zposition Zrotation Xrotation Yrotation
                          End Site
                          {
                            OFFSET -1.975 0 0
                          }
                        }
                      }
                    }
                  }
                  JOINT RightInHandRing
                  {
                    OFFSET -3.36516 0.537895 -0.128947
                    CHANNELS 6 Xposition Yposition Zposition Zrotation Xrotation Yrotation
                    JOINT RightHandRing1
                    {
                      OFFSET -4.63474 -0.022105 -0.478947
                      CHANNELS 6 Xposition Yposition Zposition Zrotation Xrotation Yrotation
                      JOINT RightHandRing2
                      {
                        OFFSET -3.44238 0 0
                        CHANNELS 6 Xposition Yposition Zposition Zrotation Xrotation Yrotation
                        JOINT RightHandRing3
                        {
                          OFFSET -2.3881 0 0
                          CHANNELS 6 Xposition Yposition Zposition Zrotation Xrotation Yrotation
                          End Site
                          {
                            OFFSET -1.857 0 0
                          }
                        }
                      }
                    }
                  }
                  JOINT RightInHandPinky
                  {
                    OFFSET -3.16105 0.469368 -1.20179
                    CHANNELS 6 Xposition Yposition Zposition Zrotation Xrotation Yrotation
                    JOINT RightHandPinky1
                    {
                      OFFSET -4.14105 -0.022105 -1.09053
                      CHANNELS 6 Xposition Yposition Zposition Zrotation Xrotation Yrotation
                      JOINT RightHandPinky2
                      {
                        OFFSET -2.75653 0 0
                        CHANNELS 6 Xposition Yposition Zposition Zrotation Xrotation Yrotation
                        JOINT RightHandPinky3
                        {
                          OFFSET -1.74189 0 0
                          CHANNELS 6 Xposition Yposition Zposition Zrotation Xrotation Yrotation
                          End Site
                          {
                            OFFSET -1.645 0 0
                          }
                        }
                      }
                    }
                  }
                }
              }
            }
          }
          JOINT LeftShoulder
          {
            OFFSET 3.22505 6.94333 0.022328
            CHANNELS 6 Xposition Yposition Zposition Zrotation Xrotation Yrotation
            JOINT LeftArm
            {
              OFFSET 12.8444 -0.0213048 -0.00476292
              CHANNELS 6 Xposition Yposition Zposition Zrotation Xrotation Yrotation
              JOINT LeftForeArm
              {
                OFFSET 26.5039 -0.0600356 -0.0922837
                CHANNELS 6 Xposition Yposition Zposition Zrotation Xrotation Yrotation
                JOINT LeftHand
                {
                  OFFSET 25.9877 -0.0131707 -0.0189166
                  CHANNELS 6 Xposition Yposition Zposition Zrotation Xrotation Yrotation
                  JOINT LeftHandThumb1
                  {
                    OFFSET 2.48905 0.190105 3.12053
                    CHANNELS 6 Xposition Yposition Zposition Zrotation Xrotation Yrotation
                    JOINT LeftHandThumb2
                    {
                      OFFSET 3.68274 0 0
                      CHANNELS 6 Xposition Yposition Zposition Zrotation Xrotation Yrotation
                      JOINT LeftHandThumb3
                      {
                        OFFSET 2.55832 0 0
                        CHANNELS 6 Xposition Yposition Zposition Zrotation Xrotation Yrotation
                        End Site
                        {
                          OFFSET 2.194 0 0
                        }
                      }
                    }
                  }
                  JOINT LeftInHandIndex
                  {
                    OFFSET 3.22368 0.508421 1.97842
                    CHANNELS 6 Xposition Yposition Zposition Zrotation Xrotation Yrotation
                    JOINT LeftHandIndex1
                    {
                      OFFSET 5.21684 -0.091368 0.999158
                      CHANNELS 6 Xposition Yposition Zposition Zrotation Xrotation Yrotation
                      JOINT LeftHandIndex2
                      {
                        OFFSET 3.61937 0 0
                        CHANNELS 6 Xposition Yposition Zposition Zrotation Xrotation Yrotation
                        JOINT LeftHandIndex3
                        {
                          OFFSET 2.0521 0 0
                          CHANNELS 6 Xposition Yposition Zposition Zrotation Xrotation Yrotation
                          End Site
                          {
                            OFFSET 1.805 0 0
                          }
                        }
                      }
                    }
                  }
                  JOINT LeftInHandMiddle
                  {
                    OFFSET 3.38211 0.517263 0.756737
                    CHANNELS 6 Xposition Yposition Zposition Zrotation Xrotation Yrotation
                    JOINT LeftHandMiddle1
                    {
                      OFFSET 5.17411 -0.084 0.313895
                      CHANNELS 6 Xposition Yposition Zposition Zrotation Xrotation Yrotation
                      JOINT LeftHandMiddle2
                      {
                        OFFSET 3.94947 0 0
                        CHANNELS 6 Xposition Yposition Zposition Zrotation Xrotation Yrotation
                        JOINT LeftHandMiddle3
                        {
                          OFFSET 2.47579 0 0
                          CHANNELS 6 Xposition Yposition Zposition Zrotation Xrotation Yrotation
                          End Site
                          {
                            OFFSET 1.975 0 0
                          }
                        }
                      }
                    }
                  }
                  JOINT LeftInHandRing
                  {
                    OFFSET 3.36516 0.537895 -0.128947
                    CHANNELS 6 Xposition Yposition Zposition Zrotation Xrotation Yrotation
                    JOINT LeftHandRing1
                    {
                      OFFSET 4.63474 -0.022105 -0.478947
                      CHANNELS 6 Xposition Yposition Zposition Zrotation Xrotation Yrotation
                      JOINT LeftHandRing2
                      {
                        OFFSET 3.44238 0 0
                        CHANNELS 6 Xposition Yposition Zposition Zrotation Xrotation Yrotation
                        JOINT LeftHandRing3
                        {
                          OFFSET 2.3881 0 0
                          CHANNELS 6 Xposition Yposition Zposition Zrotation Xrotation Yrotation
                          End Site
                          {
                            OFFSET 1.857 0 0
                          }
                        }
                      }
                    }
                  }
                  JOINT LeftInHandPinky
                  {
                    OFFSET 3.16105 0.469368 -1.20179
                    CHANNELS 6 Xposition Yposition Zposition Zrotation Xrotation Yrotation
                    JOINT LeftHandPinky1
                    {
                      OFFSET 4.14105 -0.022105 -1.09053
                      CHANNELS 6 Xposition Yposition Zposition Zrotation Xrotation Yrotation
                      JOINT LeftHandPinky2
                      {
                        OFFSET 2.75653 0 0
                        CHANNELS 6 Xposition Yposition Zposition Zrotation Xrotation Yrotation
                        JOINT LeftHandPinky3
                        {
                          OFFSET 1.74189 0 0
                          CHANNELS 6 Xposition Yposition Zposition Zrotation Xrotation Yrotation
                          End Site
                          {
                            OFFSET 1.645 0 0
                          }
                        }
                      }
                    }
                  }
                }
              }
            }
          }
        }
      }
    }
  }
}
MOTION
Frames:	3
Frame Time:	0.00833333
355.919 86.4747 225.794 28.44 13.617 -73.5389 -9.27002 -1.5459 0.01036 -26.8929 -59.2264 -26.8797 0.0140593 -41.8711 0.0133698 2.37666 25.5902 -17.2025 -0.635566 -43.1404 -0.638083 10.3804 9.8875 26.318 9.32012 -1.63326 -0.0611393 30.8342 -47.3244 18.3045 0.136006 -41.8606 -0.0682192 -1.6537 34.8832 0.849405 0.555276 -40.3269 1.11688 -15.6214 -13.6422 -16.7329 0.0429494 14.3014 0.0623428 -9.84549 9.56286 16.8766 0.0339905 9.7145 0.0185974 -2.20768 2.78125 4.0191 0.0702987 10.1151 0.00119849 -3.6525 4.57821 6.46438 0.0549776 9.72171 0.0130783 -0.11782 -0.45009 -0.553573 0.180558 10.3826 0.0585802 -0.117711 -0.453014 -0.552535 0.132064 9.47087 0.0302784 -2.82988 -8.47177 -9.7283 -3.15694 6.89408 0.00348883 2.93865 -10.3143 22.5204 -12.7416 -0.0031918 0.045926 72.5456 -4.18535 49.9804 -26.5078 -0.077338 0.00400063 26.9152 -50.3098 17.8439 -26.0338 -0.025514 0.155859 16.0033 -20.2737 -21.1785 -2.48905 0.190105 3.12053 28.184 10.7294 19.1592 -3.68274 0 0 1.46384e-14 5.96354e-16 -10 -2.55832 2.84217e-14 5.68434e-14 1.1942e-15 -2.38542e-15 -10 -3.22368 0.508421 1.97842 -3.18055e-15 -1.59028e-15 -0 -5.21684 -0.091368 0.999158 19.9818 0.871897 2.3964 -3.61937 0 -8.52651e-14 24 9.54166e-15 2.22639e-14 -2.0521 -7.10543e-15 0 20 4.77083e-15 1.90833e-14 -3.38211 0.517263 0.756737 -3.18055e-15 -1.59028e-15 -0 -5.17411 -0.084 0.313895 20 6.36111e-15 1.90833e-14 -3.94947 -1.42109e-14 5.68434e-14 24 5.1684e-15 3.18055e-14 -2.47579 -2.84217e-14 2.84217e-14 20 3.97569e-15 3.18055e-15 -3.36516 0.537895 -0.128947 -3.18055e-15 -1.59028e-15 -0 -4.63474 -0.022105 -0.478947 19.9748 -1.02565 -2.81938 -3.44238 0 5.68434e-14 24 5.56597e-15 1.90833e-14 -2.3881 -2.84217e-14 -5.68434e-14 20 -6.36111e-15 9.54166e-15 -3.16105 0.469368 -1.20179 -3.18055e-15 -1.59028e-15 -0 -4.14105 -0.022105 -1.09053 19.7815 -3.00948 -8.30515 -2.75653 -1.42109e-14 -2.84217e-14 24 1.59028e-15 2.8625e-14 -1.74189 0 0 20 -3.18055e-15 9.54166e-15 3.22505 6.94333 0.022328 15.0842 -12.8363 -30.8514 12.8444 -0.0213048 -0.00476292 -37.8898 31.616 -70.1553 26.5039 -0.0600356 -0.0922837 13.8334 -61.1731 16.017 25.9877 -0.0131707 -0.0189166 -29.0803 -24.0364 7.82335 2.48905 0.190105 3.12053 -28.184 10.7294 -19.1592 3.68274 0 2.84217e-14 6.45924e-15 0 10 2.55832 0 -2.84217e-14 7.02006e-15 -3.18055e-15 10 3.22368 0.508421 1.97842 5.29669e-31 9.54166e-15 -3.18055e-15 5.21684 -0.091368 0.999158 -19.9818 0.871897 -2.3964 3.61937 0 0 -24 -3.97569e-16 -6.36111e-15 2.0521 0 0 -20 -3.18055e-15 3.18055e-15 3.38211 0.517263 0.756737 5.29669e-31 9.54166e-15 -3.18055e-15 5.17411 -0.084 0.313895 -20 -3.18055e-15 -0 3.94947 2.84217e-14 -2.84217e-14 -24 -3.57812e-15 -0 2.47579 -7.10543e-15 0 -20 -1.59028e-15 1.27222e-14 3.36516 0.537895 -0.128947 5.29669e-31 9.54166e-15 -3.18055e-15 4.63474 -0.022105 -0.478947 -19.9748 -1.02565 2.81938 3.44238 5.68434e-14 -8.52651e-14 -24 -1.98785e-15 -9.54166e-15 2.3881 7.10543e-15 5.68434e-14 -20 -3.18055e-15 9.54166e-15 3.16105 0.469368 -1.20179 5.29669e-31 9.54166e-15 -3.18055e-15 4.14105 -0.022105 -1.09053 -19.7815 -3.00948 8.30515 2.75653 0 -2.84217e-14 -24 -1.46604e-15 -0 1.74189 1.42109e-14 5.68434e-14 -20 -3.18055e-15 6.36111e-15 
355.908 86.4707 225.755 28.4704 13.5059 -73.796 -9.26994 -1.54542 0.0107385 -26.58 -59.3566 -26.474 0.0152247 -41.8719 0.0136825 2.33422 25.5633 -17.1396 -0.631048 -43.1369 -0.62466 10.362 9.9244 26.3264 9.32402 -1.6327 -0.06172 30.934 -47.1758 18.4702 0.113314 -41.8854 -0.0310613 -1.62291 35.0495 0.631054 0.543132 -40.3296 1.17157 -15.6232 -13.8987 -16.4562 0.0448117 14.3014 0.0636653 -9.83869 9.51929 16.8199 0.0350928 9.7145 0.0182929 -2.20574 2.76837 4.00506 0.0698806 10.115 -0.00111457 -3.65252 4.55734 6.4423 0.0543666 9.72171 0.0130155 -0.127307 -0.44832 -0.539016 0.185508 10.3825 0.0581903 -0.127222 -0.451239 -0.53789 0.135918 9.47092 0.0309258 -2.98214 -8.44928 -9.46763 -3.12609 6.94632 0.0779688 3.15543 -9.92346 21.8181 -12.7414 0.0317998 0.133426 72.6114 -3.89129 49.952 -26.5082 -0.0788015 0.0249441 27.9114 -50.3099 19.1991 -25.9682 0.0484508 -0.106411 16.695 -21.3806 -19.1399 -2.48905 0.190105 3.12053 28.184 10.7294 19.1592 -3.68274 0 -5.68434e-14 -2.60746e-15 3.52843e-15 -10 -2.55832 0 0 4.84443e-15 0 -10 -3.22368 0.508421 1.97842 -3.97252e-31 -4.77083e-15 -4.77083e-15 -5.21684 -0.091368 0.999158 19.9818 0.871897 2.3964 -3.61937 0 -5.68434e-14 24 5.06901e-15 -0 -2.0521 -7.10543e-15 5.68434e-14 20 1.51076e-14 1.43125e-14 -3.38211 0.517263 0.756737 -3.97252e-31 -4.77083e-15 -4.77083e-15 -5.17411 -0.084 0.313895 20 -3.97569e-15 -1.59028e-14 -3.94947 0 -2.84217e-14 24 -4.57205e-15 -6.36111e-15 -2.47579 0 0 20 1.66979e-14 1.59028e-14 -3.36516 0.537895 -0.128947 -3.97252e-31 -4.77083e-15 -4.77083e-15 -4.63474 -0.022105 -0.478947 19.9748 -1.02565 -2.81938 -3.44238 0 -2.84217e-14 24 -1.19271e-15 -6.36111e-15 -2.3881 1.42109e-14 2.84217e-14 20 1.59028e-15 2.22639e-14 -3.16105 0.469368 -1.20179 -3.97252e-31 -4.77083e-15 -4.77083e-15 -4.14105 -0.022105 -1.09053 19.7815 -3.00948 -8.30515 -2.75653 -1.42109e-14 5.68434e-14 24 -5.76476e-15 -1.27222e-14 -1.74189 1.42109e-14 -2.84217e-14 20 6.36111e-15 9.54166e-15 3.28441 6.90542 -0.0457506 15.2863 -12.9644 -31.5758 12.8438 -0.0530618 -0.0927237 -38.5218 31.3292 -69.555 26.5037 -0.0591168 -0.0916974 13.7595 -60.2739 15.8175 25.9859 -0.0136834 -0.0168403 -29.1003 -24.03 7.82218 2.48905 0.190105 3.12053 -28.184 10.7294 -19.1592 3.68274 0 -2.84217e-14 -3.22962e-15 0 10 2.55832 -1.42109e-14 -2.84217e-14 6.73965e-15 -1.59028e-15 10 3.22368 0.508421 1.97842 -3.53113e-31 6.36111e-15 3.18055e-15 5.21684 -0.091368 0.999158 -19.9818 0.871897 -2.3964 3.61937 -2.84217e-14 -2.84217e-14 -24 5.1684e-15 9.54166e-15 2.0521 1.42109e-14 0 -20 7.95139e-16 -1.27222e-14 3.38211 0.517263 0.756737 -3.53113e-31 6.36111e-15 3.18055e-15 5.17411 -0.084 0.313895 -20 6.36111e-15 6.36111e-15 3.94947 0 0 -24 -1.98785e-15 -3.18055e-15 2.47579 7.10543e-15 0 -20 -7.95139e-16 9.54166e-15 3.36516 0.537895 -0.128947 -3.53113e-31 6.36111e-15 3.18055e-15 4.63474 -0.022105 -0.478947 -19.9748 -1.02565 2.81938 3.44238 -2.84217e-14 0 -24 -1.19271e-15 -0 2.3881 -7.10543e-15 5.68434e-14 -20 -1.59028e-15 3.18055e-15 3.16105 0.469368 -1.20179 -3.53113e-31 6.36111e-15 3.18055e-15 4.14105 -0.022105 -1.09053 -19.7815 -3.00948 8.30515 2.75653 0 -2.84217e-14 -24 -3.67752e-15 6.36111e-15 1.74189 0 0 -20 3.18055e-15 -6.36111e-15 
355.896 86.468 225.71 28.5006 13.4009 -74.0612 -9.26984 -1.54495 0.0110751 -26.2412 -59.4882 -26.0545 0.0157942 -41.8727 0.0139998 2.28305 25.5311 -17.0806 -0.621038 -43.1366 -0.608624 10.3369 9.96681 26.3444 9.32786 -1.63218 -0.0622269 31.0281 -47.0292 18.6313 0.124301 -41.8829 -0.0345879 -1.66387 35.0671 0.691174 0.555836 -40.3349 1.1741 -15.6131 -13.9428 -16.3775 0.0468854 14.3014 0.0650093 -9.8202 9.47891 16.7436 0.0362842 9.71449 0.0179726 -2.20337 2.75498 3.98623 0.0694976 10.115 -0.00306234 -3.64814 4.5353 6.41312 0.0537808 9.7217 0.0129603 -0.137725 -0.446505 -0.522703 0.191553 10.3825 0.0578934 -0.137667 -0.449419 -0.521491 0.13987 9.47097 0.0323021 -3.14886 -8.42411 -9.17583 -3.12812 6.94134 0.0697765 3.14318 -9.76841 21.7801 -12.7411 0.0258786 0.121727 72.9086 -4.15689 49.5928 -26.5086 -0.0800566 0.0074821 29.0804 -50.1949 20.8373 -25.9729 0.0554804 -0.0898764 16.441 -21.391 -19.1871 -2.48905 0.190105 3.12053 28.184 10.7294 19.1592 -3.68274 0 0 3.3509e-14 -2.27981e-15 -10 -2.55832 -1.42109e-14 5.68434e-14 1.92375e-14 -7.95139e-16 -10 -3.22368 0.508421 1.97842 -5.29669e-31 6.36111e-15 4.77083e-15 -5.21684 -0.091368 0.999158 19.9818 0.871897 2.3964 -3.61937 0 -5.68434e-14 24 7.05686e-15 3.02153e-14 -2.0521 -7.10543e-15 0 20 -5.56597e-15 -0 -3.38211 0.517263 0.756737 -5.29669e-31 6.36111e-15 4.77083e-15 -5.17411 -0.084 0.313895 20 2.38542e-15 1.90833e-14 -3.94947 2.84217e-14 -5.68434e-14 24 9.64106e-15 1.90833e-14 -2.47579 1.42109e-14 -5.68434e-14 20 0 1.59028e-14 -3.36516 0.537895 -0.128947 -5.29669e-31 6.36111e-15 4.77083e-15 -4.63474 -0.022105 -0.478947 19.9748 -1.02565 -2.81938 -3.44238 -1.42109e-14 2.84217e-14 24 2.18663e-15 3.81667e-14 -2.3881 0 0 20 3.18055e-15 9.54166e-15 -3.16105 0.469368 -1.20179 -5.29669e-31 6.36111e-15 4.77083e-15 -4.14105 -0.022105 -1.09053 19.7815 -3.00948 -8.30515 -2.75653 0 1.13687e-13 24 2.38542e-15 2.8625e-14 -1.74189 0 0 20 9.54166e-15 6.36111e-15 3.28018 6.90826 -0.0421357 15.2746 -12.8998 -31.6424 12.8444 -0.0478203 -0.0844312 -38.4997 31.4177 -69.6597 26.5035 -0.0563029 -0.0908208 13.6949 -59.363 15.6344 25.9842 -0.0141958 -0.0285868 -29.1295 -24.2634 7.71726 2.48905 0.190105 3.12053 -28.184 10.7294 -19.1592 3.68274 -2.84217e-14 0 -0 0 10 2.55832 0 -5.68434e-14 -2.80409e-16 1.59028e-15 10 3.22368 0.508421 1.97842 6.36111e-15 3.18055e-15 -3.18055e-15 5.21684 -0.091368 0.999158 -19.9818 0.871897 -2.3964 3.61937 0 0 -24 1.59028e-15 9.54166e-15 2.0521 7.10543e-15 2.84217e-14 -20 -3.97569e-15 9.54166e-15 3.38211 0.517263 0.756737 6.36111e-15 3.18055e-15 -3.18055e-15 5.17411 -0.084 0.313895 -20 6.36111e-15 6.36111e-15 3.94947 0 -5.68434e-14 -24 3.97569e-15 1.27222e-14 2.47579 0 2.84217e-14 -20 3.97569e-15 -0 3.36516 0.537895 -0.128947 6.36111e-15 3.18055e-15 -3.18055e-15 4.63474 -0.022105 -0.478947 -19.9748 -1.02565 2.81938 3.44238 2.84217e-14 5.68434e-14 -24 -2.5842e-15 9.54166e-15 2.3881 7.10543e-15 -2.84217e-14 -20 1.59028e-15 -3.18055e-15 3.16105 0.469368 -1.20179 6.36111e-15 3.18055e-15 -3.18055e-15 4.14105 -0.022105 -1.09053 -19.7815 -3.00948 8.30515 2.75653 0 5.68434e-14 -24 -2.08724e-15 -0 1.74189 0 -5.68434e-14 -20 -3.18055e-15 3.18055e-15 
